<?xml version="1.0" encoding="utf-8"?>
<!-- Generated by IcoMoon.io -->
<svg version="1.1" xmlns="http://www.w3.org/2000/svg" xmlns:xlink="http://www.w3.org/1999/xlink" width="752" height="32" viewBox="0 0 752 32">
<svg id="tonics-tools" width="32" height="32" viewBox="0 0 32 32" x="0" y="0">
<path d="M5.016 11.024c1.493-1.16 2.731-0.36 4.384 1.554 0.186 0.216 0.435-0.037 0.578-0.16 0.141-0.125 2.322-2.088 2.429-2.178 0.106-0.094 0.234-0.27 0.066-0.467-0.171-0.197-0.79-1-1.189-1.522-2.893-3.784 7.914-6.35 6.254-6.39-0.845-0.022-4.234-0.062-4.741-0.006-2.053 0.216-4.63 2.134-5.928 3.029-1.698 1.162-2.331 1.843-2.435 1.938-0.48 0.419-0.077 1.387-0.947 2.15-0.92 0.805-1.494 0.195-2.027 0.662-0.264 0.234-1.003 0.787-1.214 0.971-0.213 0.187-0.251 0.502-0.034 0.754 0 0 2.022 2.234 2.192 2.432 0.168 0.195 0.626 0.365 0.907 0.114 0.283-0.25 1.011-0.885 1.133-0.997 0.125-0.106-0.080-1.378 0.573-1.883zM14.149 11.851c-0.192-0.222-0.43-0.229-0.635-0.046l-2.294 2.003c-0.181 0.16-0.206 0.453-0.043 0.64l13.27 15.102c0.31 0.357 0.848 0.394 1.202 0.085l1.552-1.301c0.355-0.312 0.392-0.853 0.083-1.213l-13.134-15.27zM31.843 5.424c-0.118-0.79-0.528-0.626-0.741-0.291-0.213 0.338-1.154 1.763-1.541 2.41-0.384 0.64-1.331 1.906-3.094 0.656-1.837-1.298-1.198-2.203-0.878-2.813 0.322-0.613 1.309-2.331 1.451-2.544 0.142-0.216-0.024-0.843-0.594-0.581-0.571 0.262-4.037 1.64-4.517 3.616-0.491 2.010 0.411 3.806-1.36 5.59l-2.149 2.24 2.158 2.506 2.646-2.512c0.63-0.634 1.978-1.25 3.197-0.971 2.613 0.59 4.038-0.39 4.898-2.013 0.771-1.45 0.643-4.502 0.523-5.293zM4.382 27.285c-0.333 0.334-0.333 0.878 0 1.213l1.522 1.488c0.333 0.334 0.861 0.194 1.194-0.141l7.851-7.718-2.405-2.742-8.162 7.901z"></path>
</svg>
<svg id="tonics-cog" width="32" height="32" viewBox="0 0 32 32" x="48" y="0">
<path d="M6.304 10.4l-2.752-4.576 2.272-2.272 4.576 2.752c0.832-0.48 1.76-0.864 2.72-1.12l1.28-5.184h3.2l1.28 5.184c0.96 0.256 1.888 0.64 2.72 1.12l4.576-2.752 2.272 2.272-2.752 4.576c0.48 0.832 0.864 1.76 1.12 2.72l5.184 1.28v3.2l-5.184 1.28c-0.256 0.96-0.64 1.888-1.12 2.72l2.752 4.576-2.272 2.272-4.576-2.752c-0.832 0.48-1.76 0.864-2.72 1.12l-1.28 5.184h-3.2l-1.28-5.184c-0.96-0.256-1.888-0.64-2.72-1.12l-4.576 2.752-2.272-2.272 2.752-4.576c-0.48-0.832-0.864-1.76-1.12-2.72l-5.184-1.28v-3.2l5.184-1.28c0.256-0.96 0.64-1.888 1.12-2.72zM16 20.8c2.651 0 4.8-2.149 4.8-4.8s-2.149-4.8-4.8-4.8v0c-2.651 0-4.8 2.149-4.8 4.8s2.149 4.8 4.8 4.8v0z"></path>
</svg>
<svg id="tonics-home" width="32" height="32" viewBox="0 0 32 32" x="96" y="0">
<path d="M12.8 32h-8v-16h-4.8l16-16 16 16h-4.8v16h-8v-9.6h-6.4v9.6z"></path>
</svg>
<svg id="tonics-play-outline" width="32" height="32" viewBox="0 0 32 32" x="144" y="0">
<path d="M4.688 27.312c-3.014-2.914-4.885-6.993-4.885-11.509 0-8.837 7.163-16 16-16 4.516 0 8.595 1.871 11.504 4.88l0.004 0.005c2.779 2.874 4.491 6.795 4.491 11.115 0 8.837-7.163 16-16 16-4.32 0-8.241-1.712-11.12-4.496l0.005 0.004zM25.056 25.056c2.318-2.318 3.751-5.519 3.751-9.056 0-7.073-5.734-12.807-12.807-12.807-3.537 0-6.738 1.434-9.056 3.751v0c-2.318 2.318-3.751 5.519-3.751 9.056 0 7.073 5.734 12.807 12.807 12.807 3.537 0 6.738-1.433 9.056-3.751v0zM11.2 9.6l12.8 6.4-12.8 6.4v-12.8z"></path>
</svg>
</svg>
