<?xml version="1.0" encoding="UTF-8" standalone="no"?><!-- Generator: Gravit.io --><svg xmlns="http://www.w3.org/2000/svg" xmlns:xlink="http://www.w3.org/1999/xlink" style="isolation:isolate" viewBox="0 0 846.7 1058.3" width="846.7pt" height="1058.3pt"><defs><clipPath id="_clipPath_c3fbt2HriSOsu3vE8ke7cN7nbc3wbdPa"><rect width="846.7" height="1058.3"/></clipPath></defs><g clip-path="url(#_clipPath_c3fbt2HriSOsu3vE8ke7cN7nbc3wbdPa)"><g><path d=" M 62.609 673.389 L 171.88 664.898 L 178.449 749.444 L 69.178 757.934 L 62.609 673.389 Z " fill="rgb(0,0,0)"/><path d=" M 253.246 499.949 L 362.516 491.459 L 369.086 576.004 L 259.815 584.495 L 253.246 499.949 Z " fill="rgb(0,0,0)"/><path d=" M 160.515 592.21 L 269.785 583.72 L 276.355 668.265 L 167.084 676.756 L 160.515 592.21 Z " fill="rgb(0,0,0)"/><path d=" M 458.648 313.878 L 567.919 305.387 L 574.488 389.932 L 465.218 398.423 L 458.648 313.878 Z " fill="rgb(0,0,0)"/><path d=" M 664.051 127.806 L 773.322 119.316 L 779.891 203.861 L 670.62 212.352 L 664.051 127.806 Z " fill="rgb(0,0,0)"/><path d=" M 355.947 406.914 L 465.218 398.423 L 471.787 482.968 L 362.516 491.459 L 355.947 406.914 Z " fill="rgb(0,0,0)"/><path d=" M 561.35 220.842 L 670.62 212.352 L 677.19 296.897 L 567.919 305.387 L 561.35 220.842 Z " fill="rgb(0,0,0)"/></g><g><path d=" M 162.083 95.464 L 176.581 204.1 L 92.526 215.318 L 78.028 106.681 L 162.083 95.464 Z " fill="rgb(0,0,0)"/><path d=" M 345.762 276.255 L 360.26 384.892 L 276.206 396.109 L 261.708 287.472 L 345.762 276.255 Z " fill="rgb(0,0,0)"/><path d=" M 248.532 188.748 L 263.03 297.384 L 178.976 308.602 L 164.478 199.965 L 248.532 188.748 Z " fill="rgb(0,0,0)"/><path d=" M 542.868 471.093 L 557.366 579.73 L 473.311 590.948 L 458.813 482.311 L 542.868 471.093 Z " fill="rgb(0,0,0)"/><path d=" M 739.974 665.932 L 754.472 774.569 L 670.417 785.787 L 655.919 677.15 L 739.974 665.932 Z " fill="rgb(0,0,0)"/><path d=" M 641.421 568.513 L 655.919 677.15 L 571.864 688.367 L 557.366 579.73 L 641.421 568.513 Z " fill="rgb(0,0,0)"/></g></g></svg>