<!-- Generated by IcoMoon.io -->
<svg version="1.1" xmlns="http://www.w3.org/2000/svg" width="640" height="640" viewBox="0 0 640 640">
<title></title>
<g id="icomoon-ignore">
</g>
<path d="M320 96v64c-0.085 0-0.186 0-0.286 0-88.366 0-160 71.634-160 160 0 44.254 17.966 84.312 47.003 113.277l0.003 0.003-45.12 45.12c-40.541-40.537-65.616-96.54-65.616-158.4 0-123.712 100.288-224 224-224 0.006 0 0.011 0 0.017 0h-0.001zM478.4 161.6c40.541 40.537 65.616 96.54 65.616 158.4 0 123.712-100.288 224-224 224-0.006 0-0.011 0-0.017 0h0.001v-64c0.085 0 0.186 0 0.286 0 88.366 0 160-71.634 160-160 0-44.254-17.966-84.312-47.003-113.277l-0.003-0.003 45.12-45.12zM320 640l-128-128 128-128v256zM320 256v-256l128 128-128 128z"></path>
</svg>
