<?xml version="1.0" encoding="UTF-8" standalone="no"?>
<!DOCTYPE svg PUBLIC "-//W3C//DTD SVG 1.1//EN" "http://www.w3.org/Graphics/SVG/1.1/DTD/svg11.dtd">
<svg width="100%" height="100%" viewBox="0 0 500 500" version="1.1" xmlns="http://www.w3.org/2000/svg" xmlns:xlink="http://www.w3.org/1999/xlink" xml:space="preserve" xmlns:serif="http://www.serif.com/" style="fill-rule:evenodd;clip-rule:evenodd;stroke-linecap:round;stroke-linejoin:round;stroke-miterlimit:1.5;">
    <g id="Outline">
        <g transform="matrix(-0.28085,-1.04815,1.04815,-0.28085,-198.189,564.885)">
            <path d="M398.057,495.585C411.393,472.486 418.414,446.283 418.414,419.61C418.414,335.746 350.328,267.659 266.464,267.659C182.6,267.659 114.513,335.746 114.513,419.61C114.513,446.283 121.534,472.486 134.871,495.585L398.057,495.585Z" style="fill:rgb(169,157,130);"/>
        </g>
        <g transform="matrix(-0.28085,1.04815,-1.04815,-0.28085,847.082,6.29921)">
            <path d="M398.057,495.585C411.393,472.486 418.414,446.283 418.414,419.61C418.414,335.746 350.328,267.659 266.464,267.659C182.6,267.659 114.513,335.746 114.513,419.61C114.513,446.283 121.534,472.486 134.871,495.585L398.057,495.585Z" style="fill:rgb(169,157,130);"/>
        </g>
        <g transform="matrix(-1.08512,1.91409e-17,-1.91409e-17,-1.08512,553.311,789.692)">
            <path d="M398.057,495.585C411.393,472.486 418.414,446.283 418.414,419.61C418.414,335.746 350.328,267.659 266.464,267.659C182.6,267.659 114.513,335.746 114.513,419.61C114.513,446.283 121.534,472.486 134.871,495.585L398.057,495.585Z" style="fill:rgb(169,157,130);"/>
        </g>
    </g>
    <g transform="matrix(0.983612,0,0,0.982504,-0.576114,5.73502)">
        <g transform="matrix(-0.28085,-1.04815,1.04815,-0.28085,-198.189,564.885)">
            <path d="M398.057,495.585C411.393,472.486 418.414,446.283 418.414,419.61C418.414,335.746 350.328,267.659 266.464,267.659C182.6,267.659 114.513,335.746 114.513,419.61C114.513,446.283 121.534,472.486 134.871,495.585L398.057,495.585Z" style="fill:white;"/>
        </g>
        <g transform="matrix(-0.28085,1.04815,-1.04815,-0.28085,847.082,6.29921)">
            <path d="M398.057,495.585C411.393,472.486 418.414,446.283 418.414,419.61C418.414,335.746 350.328,267.659 266.464,267.659C182.6,267.659 114.513,335.746 114.513,419.61C114.513,446.283 121.534,472.486 134.871,495.585L398.057,495.585Z" style="fill:white;"/>
        </g>
        <g transform="matrix(-1.08512,1.91409e-17,-1.91409e-17,-1.08512,553.311,789.692)">
            <path d="M398.057,495.585C411.393,472.486 418.414,446.283 418.414,419.61C418.414,335.746 350.328,267.659 266.464,267.659C182.6,267.659 114.513,335.746 114.513,419.61C114.513,446.283 121.534,472.486 134.871,495.585L398.057,495.585Z" style="fill:white;"/>
        </g>
        <g transform="matrix(5.63029e-17,-0.919496,0.919496,5.63029e-17,-500.046,749.493)">
            <path d="M389.454,778.565C359.947,778.565 335.99,802.522 335.99,832.03C335.99,861.538 359.947,885.494 389.454,885.494C380.602,873.019 373.415,853.357 373.415,832.03C373.415,810.702 380.602,791.04 389.454,778.565Z" style="stroke:rgb(34,0,0);stroke-width:1.11px;"/>
        </g>
        <g transform="matrix(0.919496,0,0,0.919496,-405.392,-168.62)">
            <path d="M740.225,504.082C740.225,504.082 645.216,369.953 709.364,355.79" style="fill:none;stroke:rgb(34,0,0);stroke-width:5.53px;"/>
        </g>
        <g transform="matrix(5.63029e-17,-0.919496,0.919496,5.63029e-17,-441.566,651.145)">
            <path d="M389.454,778.565C359.947,778.565 335.99,802.522 335.99,832.03C335.99,861.538 359.947,885.494 389.454,885.494C380.602,873.019 373.415,853.357 373.415,832.03C373.415,810.702 380.602,791.04 389.454,778.565Z" style="stroke:rgb(34,0,0);stroke-width:1.11px;"/>
        </g>
        <path d="M310.092,306.779C310.092,306.779 301.943,310.347 300.094,320.035C298.246,329.723 306.454,337.858 309.93,340.151" style="fill:none;stroke:white;stroke-width:8.48px;"/>
        <g transform="matrix(1,0,0,1,5.19993,0)">
            <path d="M330.046,307.685C330.046,307.685 322.354,310.791 320.136,320.035C317.917,329.28 326.496,339.633 329.898,341.556" style="fill:none;stroke:white;stroke-width:8.48px;"/>
        </g>
    </g>
</svg>
