<?xml version="1.0" encoding="UTF-8" standalone="no"?><!DOCTYPE svg PUBLIC "-//W3C//DTD SVG 1.1//EN" "http://www.w3.org/Graphics/SVG/1.1/DTD/svg11.dtd"><svg width="100%" height="100%" viewBox="0 0 384 384" version="1.1" xmlns="http://www.w3.org/2000/svg" xmlns:xlink="http://www.w3.org/1999/xlink" xml:space="preserve" xmlns:serif="http://www.serif.com/" style="fill-rule:evenodd;clip-rule:evenodd;stroke-linecap:square;stroke-linejoin:round;stroke-miterlimit:1.5;"><path d="M170.734,289.449c19.633,25.499 3.912,49.309 13.482,65.885c5.869,10.164 18.886,13.652 29.05,7.784c10.165,-5.869 13.653,-18.886 7.784,-29.051c-9.57,-16.575 -30.475,-31.517 -50.316,-44.618Z" style="stroke:#0a0a0a;stroke-width:10.95px;"/><path d="M192.882,106.45c-4.412,-2.66 -6.929,-7.597 -6.492,-12.731c0.057,-0.673 0.117,-1.374 0.179,-2.1c1.963,-23.032 13.627,-44.143 32.08,-58.065c-0,0 0,0 0,0c7.021,-5.297 15.467,-8.372 24.25,-8.831c7.204,-0.376 16.17,-0.843 23.958,-1.25c11.562,-0.603 22.939,3.087 31.947,10.361c-0,-0 0,-0 0,0c6.526,5.27 11.573,12.144 14.646,19.949c2.949,7.487 6.718,17.059 9.555,24.264c2.722,6.913 3.8,14.364 3.147,21.765c0,0.001 0,0.001 0,0.001c-1.393,15.794 -9.351,30.279 -21.934,39.925c-4.461,3.419 -9.077,6.957 -13.145,10.075c-8.127,6.23 -18.117,9.541 -28.357,9.399c0,-0 0,-0 -0,-0c-1.07,-0.015 -2.137,-0.109 -3.192,-0.282c-2.901,-0.474 -8.767,-1.434 -8.767,-1.434c-0,0 -2.387,-3.372 -5.526,-7.809c-9.782,-13.825 -22.395,-25.409 -37.001,-33.982c-0.062,-0.036 -0.094,-0.055 -0.094,-0.055c0,0 -8.685,-5.238 -15.254,-9.2Z" style="stroke:#fff;stroke-width:17.31px;"/><g id="Tonics-Logo-Group" serif:id="Tonics Logo Group"><g><path d="M149.268,226.773c-23.524,-12.611 -39.583,-37.762 -39.583,-66.704l-0.478,-0.001c-40.6,-0.262 -73.482,-33.915 -73.482,-75.329c-0,-41.576 33.14,-75.331 73.96,-75.331c40.821,0 73.961,33.755 73.961,75.331l0.002,-0.487c0.257,-41.352 33.298,-74.844 73.959,-74.844c40.82,0 73.961,33.755 73.961,75.331c0,41.576 -33.141,75.33 -73.961,75.33c0,28.937 -16.054,54.086 -39.582,66.704c13.466,7.22 24.486,18.549 31.447,32.345c3.427,2.02 6.595,4.492 9.418,7.367l-4.762,4.109c0.123,0.394 0.243,0.789 0.36,1.184l4.402,-5.293c5.667,5.773 9.742,12.962 11.817,20.847l-13.188,2.434c0.037,0.783 0.063,1.568 0.076,2.356l13.112,-4.79c2.074,7.885 2.074,16.187 -0,24.072l-14.158,-5.172c-0.139,0.831 -0.292,1.657 -0.457,2.475l14.615,2.697c-2.075,7.885 -6.15,15.075 -11.817,20.847l-7.359,-8.848c-0.258,0.607 -0.524,1.209 -0.798,1.81l8.157,7.038c-3.712,3.78 -8.021,6.866 -12.728,9.138c-2.205,7.112 -6.061,13.591 -11.253,18.879l-6.007,-7.222c-0.413,0.326 -0.829,0.647 -1.248,0.963l7.255,6.259c-5.668,5.772 -12.727,9.923 -20.468,12.036l-1.7,-9.559c-0.481,0.21 -0.964,0.415 -1.45,0.615l3.15,8.944c-7.742,2.113 -15.893,2.113 -23.634,-0l1.408,-3.998c-0.237,0.028 -0.474,0.054 -0.711,0.08l-0.697,3.918c-3.119,-0.851 -6.127,-2.033 -8.979,-3.52c-39.982,-0.985 -72.143,-34.351 -72.143,-75.308c0,-28.941 16.059,-54.092 39.583,-66.703Z" style="fill:#fff;fill-opacity:0;stroke:#000;stroke-width:19px;stroke-linecap:round;"/></g></g></svg>