<?xml version="1.0" encoding="UTF-8" standalone="no"?><!--
  -     Copyright (c) 2024. Olayemi Faruq <olayemi@tonics.app>
  -
  -     This program is free software: you can redistribute it and/or modify
  -     it under the terms of the GNU Affero General Public License as
  -     published by the Free Software Foundation, either version 3 of the
  -     License, or (at your option) any later version.
  -
  -     This program is distributed in the hope that it will be useful,
  -     but WITHOUT ANY WARRANTY; without even the implied warranty of
  -     MERCHANTABILITY or FITNESS FOR A PARTICULAR PURPOSE.  See the
  -     GNU Affero General Public License for more details.
  -
  -     You should have received a copy of the GNU Affero General Public License
  -     along with this program.  If not, see <https://www.gnu.org/licenses/>.
  -->

<!DOCTYPE svg PUBLIC "-//W3C//DTD SVG 1.1//EN" "http://www.w3.org/Graphics/SVG/1.1/DTD/svg11.dtd"><svg width="100%" height="100%" viewBox="0 0 384 384" version="1.1" xmlns="http://www.w3.org/2000/svg" xmlns:xlink="http://www.w3.org/1999/xlink" xml:space="preserve" xmlns:serif="http://www.serif.com/" style="fill-rule:evenodd;clip-rule:evenodd;stroke-linecap:square;stroke-linejoin:round;stroke-miterlimit:1.5;"><path d="M170.734,289.449c19.633,25.499 3.912,49.309 13.482,65.885c5.869,10.164 18.886,13.652 29.05,7.784c10.165,-5.869 13.653,-18.886 7.784,-29.051c-9.57,-16.575 -30.475,-31.517 -50.316,-44.618Z" style="fill:#fff;stroke:#000;stroke-width:10.95px;"/><path d="M192.882,106.45c-4.412,-2.66 -6.929,-7.597 -6.492,-12.731c0.057,-0.673 0.117,-1.374 0.179,-2.1c1.963,-23.032 13.627,-44.143 32.08,-58.065c-0,0 0,0 0,0c7.021,-5.297 15.467,-8.372 24.25,-8.831c7.204,-0.376 16.17,-0.843 23.958,-1.25c11.562,-0.603 22.939,3.087 31.947,10.361c-0,-0 0,-0 0,0c6.526,5.27 11.573,12.144 14.646,19.949c2.949,7.487 6.718,17.059 9.555,24.264c2.722,6.913 3.8,14.364 3.147,21.765c0,0.001 0,0.001 0,0.001c-1.393,15.794 -9.351,30.279 -21.934,39.925c-4.461,3.419 -9.077,6.957 -13.145,10.075c-8.127,6.23 -18.117,9.541 -28.357,9.399c0,-0 0,-0 -0,-0c-1.07,-0.015 -2.137,-0.109 -3.192,-0.282c-2.901,-0.474 -8.767,-1.434 -8.767,-1.434c-0,0 -2.387,-3.372 -5.526,-7.809c-9.782,-13.825 -22.395,-25.409 -37.001,-33.982c-0.062,-0.036 -0.094,-0.055 -0.094,-0.055c0,0 -8.685,-5.238 -15.254,-9.2Z" style="fill:#fff;stroke:#000;stroke-width:17.31px;"/><g id="Tonics-Logo-Group" serif:id="Tonics Logo Group"><g><path d="M148.643,227.558c-22.93,-12.681 -38.582,-37.972 -38.582,-67.073l-0.466,-0.002c-39.575,-0.263 -71.627,-34.103 -71.627,-75.746c0,-41.807 32.304,-75.748 72.093,-75.748c39.788,-0 72.092,33.941 72.092,75.748l0.001,-0.49c0.251,-41.581 32.457,-75.258 72.091,-75.258c39.789,-0 72.092,33.941 72.092,75.748c0,41.806 -32.303,75.748 -72.092,75.748c0,29.097 -15.648,54.384 -38.582,67.073c13.126,7.259 23.867,18.651 30.653,32.524c3.34,2.031 6.428,4.517 9.179,7.408l-4.642,4.132c0.12,0.396 0.238,0.793 0.351,1.191l4.291,-5.323c5.524,5.804 9.497,13.034 11.519,20.962l-12.855,2.447c0.036,0.788 0.061,1.578 0.074,2.37l12.781,-4.817c2.022,7.929 2.022,16.277 -0,24.205l-13.8,-5.2c-0.136,0.835 -0.285,1.666 -0.446,2.489l14.246,2.711c-2.022,7.929 -5.995,15.159 -11.519,20.963l-7.172,-8.897c-0.252,0.61 -0.511,1.215 -0.779,1.82l7.951,7.077c-3.618,3.801 -7.818,6.904 -12.406,9.189c-2.149,7.151 -5.908,13.666 -10.969,18.983l-5.855,-7.262c-0.403,0.328 -0.808,0.651 -1.216,0.969l7.071,6.293c-5.524,5.804 -12.405,9.978 -19.951,12.103l-1.657,-9.612c-0.468,0.211 -0.939,0.417 -1.413,0.618l3.07,8.994c-7.546,2.124 -15.491,2.124 -23.037,-0l1.373,-4.021c-0.231,0.028 -0.462,0.055 -0.693,0.081l-0.68,3.94c-3.04,-0.856 -5.972,-2.045 -8.751,-3.539c-38.972,-0.991 -70.32,-34.542 -70.32,-75.725c-0,-29.102 15.652,-54.392 38.582,-67.073Z" style="fill:#fff;fill-opacity:0;stroke:#fff;stroke-width:19px;stroke-linecap:round;"/></g></g></svg>