<?xml version="1.0" encoding="UTF-8" standalone="no"?><!-- Generator: Gravit.io --><svg xmlns="http://www.w3.org/2000/svg" xmlns:xlink="http://www.w3.org/1999/xlink" style="isolation:isolate" viewBox="0 0 1440 320" width="1440pt" height="320pt"><defs><clipPath id="_clipPath_EV3gSR19B43wvEbLRJslLpYFNGJ3vyoy"><rect width="1440" height="320"/></clipPath></defs><g clip-path="url(#_clipPath_EV3gSR19B43wvEbLRJslLpYFNGJ3vyoy)"><linearGradient id="_lgradient_0" x1="0" y1="0.5" x2="1" y2="0.5" gradientTransform="matrix(1440,0,0,320,0,0)" gradientUnits="userSpaceOnUse"><stop offset="0%" stop-opacity="1" style="stop-color:rgb(20,30,48)"/><stop offset="98.69565217391305%" stop-opacity="1" style="stop-color:rgb(23,35,49)"/></linearGradient><path d=" M 0 243.627 L 40 261.028 C 80 278.43 160 313.234 240 318.999 C 320 325.198 400 301.27 480 284.195 C 560 266.467 640 255.59 720 261.028 C 800 266.467 880 290.394 960 301.597 C 1040 313.234 1120 313.234 1200 307.47 C 1280 301.27 1360 290.394 1400 284.195 L 1440 278.43 L 1440 0 L 1400 0 C 1360 0 1280 0 1200 0 C 1120 0 1040 0 960 0 C 880 0 800 0 720 0 C 640 0 560 0 480 0 C 400 0 320 0 240 0 C 160 0 80 0 40 0 L 0 0 L 0 243.627 Z " fill="url(#_lgradient_0)"/></g></svg>