<!-- Generated by IcoMoon.io -->
<svg version="1.1" xmlns="http://www.w3.org/2000/svg" width="640" height="640" viewBox="0 0 640 640">
<title></title>
<g id="icomoon-ignore">
</g>
<path fill="#000" d="M457.141 128h-54.858c-15.168 0-27.429 1.316-27.429 16.458v351.086c0 15.14 12.26 16.457 27.429 16.457h54.858c15.168 0 27.429-1.316 27.429-16.457v-351.086c0-15.14-12.26-16.457-27.429-16.457zM237.712 128h-54.857c-15.168 0-27.429 1.316-27.429 16.458v351.086c0 15.14 12.26 16.457 27.429 16.457h54.857c15.168 0 27.429-1.316 27.429-16.457v-351.086c0-15.14-12.26-16.457-27.429-16.457z"></path>
</svg>
